<?xml version="1.0" encoding="UTF-8"?>
<svg width="46px" height="46px" viewBox="0 0 46 46" version="1.1" xmlns="http://www.w3.org/2000/svg" xmlns:xlink="http://www.w3.org/1999/xlink">
    <!-- Generator: Sketch 52.6 (67491) - http://www.bohemiancoding.com/sketch -->
    <title>Untitled</title>
    <desc>Created with Sketch.</desc>
    <g id="Page-1" stroke="none" stroke-width="1" fill="none" fill-rule="evenodd">
        <g id="user-point">
            <g id="Rectangle">
                <g id="path-1-link" fill="#000000">
                    <path d="M23,0 C35.7025492,-2.33342044e-15 46,10.2974508 46,23 C46,35.7025492 35.7025492,46 23,46 C10.2974508,46 1.55561363e-15,35.7025492 0,23 C-1.55561363e-15,10.2974508 10.2974508,2.33342044e-15 23,0 Z" id="path-1"></path>
                </g>
                <g id="path-1-link" fill="#FFFFFF">
                    <path d="M23,0 C35.7025492,-2.33342044e-15 46,10.2974508 46,23 C46,35.7025492 35.7025492,46 23,46 C10.2974508,46 1.55561363e-15,35.7025492 0,23 C-1.55561363e-15,10.2974508 10.2974508,2.33342044e-15 23,0 Z" id="path-1"></path>
                </g>
            </g>
            <rect id="Rectangle-2" fill="#00F2FE" x="17" y="17" width="12" height="12" rx="6"></rect>
        </g>
    </g>
</svg>